# Blender 4.4.1
# www.blender.org
mtllib calib.mtl
o calibração
v -297.000000 -0.000016 -210.000000
v -297.000000 0.000000 0.000000
v -297.000000 0.099984 -210.000000
v -297.000000 0.100000 -0.000000
v 0.000000 -0.000016 -210.000000
v 0.000000 0.000000 0.000000
v 0.000000 0.099984 -210.000000
v 0.000000 0.100000 -0.000000
vn 1.0000 -0.0000 -0.0000
vn -0.0000 -0.0000 1.0000
vn -1.0000 -0.0000 -0.0000
vn -0.0000 -0.0000 -1.0000
vn -0.0000 1.0000 -0.0000
vn -0.0000 -1.0000 -0.0000
vt 0.000000 0.000000
vt 21.000000 0.000000
vt 0.000000 0.010000
vt 21.000000 0.010000
vt 29.700001 0.000000
vt 29.700001 0.010000
vt -10.500000 -14.850000
vt 10.500000 -14.850000
vt -10.500000 14.850000
vt 10.500000 14.850000
vt 0.043516 -0.000017
vt 0.958373 -0.000017
vt 0.043516 0.999792
vt 0.958373 0.999792
s 1
usemtl 191,191,191
f 6/1/1 5/2/1 8/3/1
f 8/3/1 5/2/1 7/4/1
f 2/1/2 6/5/2 4/3/2
f 4/3/2 6/5/2 8/6/2
f 1/1/3 2/2/3 3/3/3
f 3/3/3 2/2/3 4/4/3
f 5/1/4 1/5/4 7/3/4
f 7/3/4 1/5/4 3/6/4
f 3/7/5 4/8/5 7/9/5
f 7/9/5 4/8/5 8/10/5
usemtl calibração
f 5/11/6 6/12/6 1/13/6
f 1/13/6 6/12/6 2/14/6
