# Blender 4.4.1
# www.blender.org
mtllib xad.mtl
o xadrez(154)
v -41.999996 -0.000000 -0.100000
v -41.999996 0.000000 0.000000
v -41.999996 154.000000 -0.100012
v -41.999996 154.000000 -0.000012
v 0.000000 -0.000000 -0.100000
v 0.000000 0.000000 0.000000
v 0.000000 154.000000 -0.100012
v 0.000000 154.000000 -0.000012
vn 1.0000 -0.0000 -0.0000
vn -0.0000 -0.0000 1.0000
vn -1.0000 -0.0000 -0.0000
vn -0.0000 -0.0000 -1.0000
vn -0.0000 1.0000 -0.0000
vn -0.0000 -1.0000 -0.0000
vt 0.000000 0.000000
vt 0.010000 0.000000
vt 0.000000 15.400000
vt 0.010000 15.400000
vt 0.000101 0.000100
vt 0.999027 0.000100
vt 0.000100 0.999900
vt 0.999026 0.999900
vt 0.000101 0.000100
vt 0.999027 0.000100
vt 0.000100 0.999900
vt 0.999026 0.999900
vt -0.005000 -2.100000
vt 0.005000 -2.100000
vt -0.005000 2.100000
vt 0.005000 2.100000
s 1
usemtl 191,191,191
f 6/1/1 5/2/1 8/3/1
f 8/3/1 5/2/1 7/4/1
f 1/1/3 2/2/3 3/3/3
f 3/3/3 2/2/3 4/4/3
f 3/13/5 4/14/5 7/15/5
f 7/15/5 4/14/5 8/16/5
f 5/16/6 6/15/6 1/14/6
f 1/14/6 6/15/6 2/13/6
usemtl xadrez
f 2/5/2 6/6/2 4/7/2
f 4/7/2 6/6/2 8/8/2
f 5/9/4 1/10/4 7/11/4
f 7/11/4 1/10/4 3/12/4
