# Blender 4.4.1
# www.blender.org
mtllib xadrez(0.8).mtl
o placa_xadrez
v -40.000000 -0.000000 -0.100000
v -40.000000 0.000000 0.000000
v -40.000000 160.000000 -0.100012
v -40.000000 160.000000 -0.000012
v 0.000000 -0.000000 -0.100000
v 0.000000 0.000000 0.000000
v 0.000000 160.000000 -0.100012
v 0.000000 160.000000 -0.000012
vn 1.0000 -0.0000 -0.0000
vn -0.0000 -0.0000 1.0000
vn -1.0000 -0.0000 -0.0000
vn -0.0000 -0.0000 -1.0000
vn -0.0000 1.0000 -0.0000
vn -0.0000 -1.0000 -0.0000
vt 0.000000 0.000000
vt 0.010000 0.000000
vt 0.000000 16.000000
vt 0.010000 16.000000
vt 0.993645 0.999900
vt 0.003619 0.999900
vt 0.993645 0.000099
vt 0.003619 0.000099
vt 0.994316 0.999900
vt 0.004290 0.999900
vt 0.994316 0.000099
vt 0.004289 0.000099
vt -0.005000 -2.000000
vt 0.005000 -2.000000
vt -0.005000 2.000000
vt 0.005000 2.000000
s 1
usemtl 191,191,191
f 6/1/1 5/2/1 8/3/1
f 8/3/1 5/2/1 7/4/1
f 1/1/3 2/2/3 3/3/3
f 3/3/3 2/2/3 4/4/3
f 3/13/5 4/14/5 7/15/5
f 7/15/5 4/14/5 8/16/5
f 5/16/6 6/15/6 1/14/6
f 1/14/6 6/15/6 2/13/6
usemtl xadrez
f 2/5/2 6/6/2 4/7/2
f 4/7/2 6/6/2 8/8/2
f 5/9/4 1/10/4 7/11/4
f 7/11/4 1/10/4 3/12/4
