# WaveFront *.obj file (generated by Autodesk ATF)

mtllib ferramenta1.mtl

g Solid1

v -9.906859 -1.361666 0.000000
v -9.906859 -1.361666 200.000000
v -9.906859 1.361666 0.000000
v -9.906859 1.361666 200.000000
v -9.172113 -3.984011 0.000000
v -9.172113 -3.984011 200.000000
v -9.172113 3.984011 0.000000
v -9.172113 3.984011 200.000000
v -7.757113 -6.310880 0.000000
v -7.757113 -6.310880 200.000000
v -7.757113 6.310880 0.000000
v -7.757113 6.310880 200.000000
v -5.766803 -8.169699 0.000000
v -5.766803 -8.169699 200.000000
v -5.766803 8.169699 0.000000
v -5.766803 8.169699 200.000000
v -3.348796 -9.422609 0.000000
v -3.348796 -9.422609 200.000000
v -3.348796 9.422609 0.000000
v -3.348796 9.422609 200.000000
v -0.682424 -9.976687 0.000000
v -0.682424 -9.976687 200.000000
v -0.682424 9.976687 0.000000
v -0.682424 9.976687 200.000000
v 2.034560 -9.790841 0.000000
v 2.034560 -9.790841 200.000000
v 2.034560 9.790841 0.000000
v 2.034560 9.790841 200.000000
v 4.600650 -8.878852 0.000000
v 4.600650 -8.878852 200.000000
v 4.600650 8.878852 0.000000
v 4.600650 8.878852 200.000000
v 6.825532 -7.308360 0.000000
v 6.825532 -7.308360 200.000000
v 6.825532 7.308360 0.000000
v 6.825532 7.308360 200.000000
v 8.544194 -5.195839 0.000000
v 8.544194 -5.195839 200.000000
v 8.544194 5.195839 0.000000
v 8.544194 5.195839 200.000000
v 9.629173 -2.697968 0.000000
v 9.629173 -2.697968 200.000000
v 9.629173 2.697968 0.000000
v 9.629173 2.697968 200.000000
v 10.000000 0.000000 0.000000
v 10.000000 0.000000 200.000000
vt -20.000000 0.000000 0.000000
vt -20.000000 -0.273182 0.000000
vt -20.000000 -0.546364 0.000000
vt -20.000000 -0.819546 0.000000
vt -20.000000 -1.092728 0.000000
vt -20.000000 -1.365910 0.000000
vt -20.000000 -1.639092 0.000000
vt -20.000000 -1.912274 0.000000
vt -20.000000 -2.185456 0.000000
vt -20.000000 -2.458638 0.000000
vt -20.000000 -2.731820 0.000000
vt -20.000000 -3.005002 0.000000
vt -20.000000 3.005002 0.000000
vt -20.000000 2.731820 0.000000
vt -20.000000 2.458638 0.000000
vt -20.000000 2.185456 0.000000
vt -20.000000 1.912274 0.000000
vt -20.000000 1.639092 0.000000
vt -20.000000 1.365910 0.000000
vt -20.000000 1.092728 0.000000
vt -20.000000 0.819546 0.000000
vt -20.000000 0.546364 0.000000
vt -20.000000 0.273182 0.000000
vt -0.000000 0.000000 0.000000
vt -0.000000 0.273182 0.000000
vt -0.000000 0.546364 0.000000
vt -0.000000 0.819546 0.000000
vt -0.000000 1.092728 0.000000
vt -0.000000 1.365910 0.000000
vt -0.000000 1.639092 0.000000
vt -0.000000 1.912274 0.000000
vt -0.000000 2.185456 0.000000
vt -0.000000 2.458638 0.000000
vt -0.000000 2.731820 0.000000
vt -0.000000 -3.278184 0.000000
vt -0.000000 -3.005002 0.000000
vt -0.000000 -2.731820 0.000000
vt -0.000000 -2.458638 0.000000
vt -0.000000 -2.185456 0.000000
vt -0.000000 -1.912274 0.000000
vt -0.000000 -1.639092 0.000000
vt -0.000000 -1.365910 0.000000
vt -0.000000 -1.092728 0.000000
vt -0.000000 -0.819546 0.000000
vt -0.000000 -0.546364 0.000000
vt -0.000000 -0.273182 0.000000
vt -20.000000 -3.278184 0.000000
vt -20.000000 -3.278184 0.000000
vt -0.000000 3.005002 0.000000
vt -0.000000 3.005002 0.000000
vt 1.000000 0.000000 0.000000
vt 0.962917 0.269797 0.000000
vt 0.854419 0.519584 0.000000
vt 0.682553 0.730836 0.000000
vt 0.460065 0.887885 0.000000
vt 0.203456 0.979084 0.000000
vt -0.068242 0.997669 0.000000
vt -0.334880 0.942261 0.000000
vt -0.576680 0.816970 0.000000
vt -0.775711 0.631088 0.000000
vt -0.917211 0.398401 0.000000
vt -0.990686 0.136167 0.000000
vt -0.990686 -0.136167 0.000000
vt -0.917211 -0.398401 0.000000
vt -0.775711 -0.631088 0.000000
vt -0.576680 -0.816970 0.000000
vt -0.334880 -0.942261 0.000000
vt -0.068242 -0.997669 0.000000
vt 0.203456 -0.979084 0.000000
vt 0.460065 -0.887885 0.000000
vt 0.682553 -0.730836 0.000000
vt 0.854419 -0.519584 0.000000
vt 0.962917 -0.269797 0.000000
vt -1.000000 0.000000 0.000000
vt -0.962917 -0.269797 0.000000
vt -0.854419 -0.519584 0.000000
vt -0.682553 -0.730836 0.000000
vt -0.460065 -0.887885 0.000000
vt -0.203456 -0.979084 0.000000
vt 0.068242 -0.997669 0.000000
vt 0.334880 -0.942261 0.000000
vt 0.576680 -0.816970 0.000000
vt 0.775711 -0.631088 0.000000
vt 0.917211 -0.398401 0.000000
vt 0.990686 -0.136167 0.000000
vt 0.990686 0.136167 0.000000
vt 0.917211 0.398401 0.000000
vt 0.775711 0.631088 0.000000
vt 0.576680 0.816970 0.000000
vt 0.334880 0.942261 0.000000
vt 0.068242 0.997669 0.000000
vt -0.203456 0.979084 0.000000
vt -0.460065 0.887885 0.000000
vt -0.682553 0.730836 0.000000
vt -0.854419 0.519584 0.000000
vt -0.962917 0.269797 0.000000
vn 0.100000 0.000000 0.000000
vn 0.096292 -0.026980 0.000000
vn 0.085442 -0.051958 0.000000
vn 0.068255 -0.073084 0.000000
vn 0.046007 -0.088789 0.000000
vn 0.020346 -0.097908 0.000000
vn -0.006824 -0.099767 0.000000
vn -0.033488 -0.094226 0.000000
vn -0.057668 -0.081697 0.000000
vn -0.077571 -0.063109 0.000000
vn -0.091721 -0.039840 0.000000
vn -0.099069 -0.013617 0.000000
vn -0.099069 0.013617 0.000000
vn -0.091721 0.039840 0.000000
vn -0.077571 0.063109 0.000000
vn -0.057668 0.081697 0.000000
vn -0.033488 0.094226 0.000000
vn -0.006824 0.099767 0.000000
vn 0.020346 0.097908 0.000000
vn 0.046007 0.088789 0.000000
vn 0.068255 0.073084 0.000000
vn 0.085442 0.051958 0.000000
vn 0.096292 0.026980 0.000000
vn 0.100000 0.000000 0.000000
vn 0.096292 0.026980 0.000000
vn 0.085442 0.051958 0.000000
vn 0.068255 0.073084 0.000000
vn 0.046007 0.088789 0.000000
vn 0.020346 0.097908 0.000000
vn -0.006824 0.099767 0.000000
vn -0.033488 0.094226 0.000000
vn -0.057668 0.081697 0.000000
vn -0.077571 0.063109 0.000000
vn -0.091721 0.039840 0.000000
vn -0.099069 0.013617 0.000000
vn -0.099069 -0.013617 0.000000
vn -0.091721 -0.039840 0.000000
vn -0.077571 -0.063109 0.000000
vn -0.057668 -0.081697 0.000000
vn -0.033488 -0.094226 0.000000
vn -0.006824 -0.099767 0.000000
vn 0.020346 -0.097908 0.000000
vn 0.046007 -0.088789 0.000000
vn 0.068255 -0.073084 0.000000
vn 0.085442 -0.051958 0.000000
vn 0.096292 -0.026980 0.000000
vn -0.099069 0.013617 0.000000
vn -0.099069 0.013617 0.000000
vn -0.099069 0.013617 0.000000
vn -0.099069 0.013617 0.000000
vn 0.000000 0.000000 0.100000
vn 0.000000 0.000000 0.100000
vn 0.000000 0.000000 0.100000
vn 0.000000 0.000000 0.100000
vn 0.000000 0.000000 0.100000
vn 0.000000 0.000000 0.100000
vn 0.000000 0.000000 0.100000
vn 0.000000 0.000000 0.100000
vn 0.000000 0.000000 0.100000
vn 0.000000 0.000000 0.100000
vn 0.000000 0.000000 0.100000
vn 0.000000 0.000000 0.100000
vn 0.000000 0.000000 0.100000
vn 0.000000 0.000000 0.100000
vn 0.000000 0.000000 0.100000
vn 0.000000 0.000000 0.100000
vn 0.000000 0.000000 0.100000
vn 0.000000 0.000000 0.100000
vn 0.000000 0.000000 0.100000
vn 0.000000 0.000000 0.100000
vn 0.000000 0.000000 0.100000
vn 0.000000 0.000000 0.100000
vn 0.000000 0.000000 0.100000
vn 0.000000 0.000000 -0.100000
vn 0.000000 0.000000 -0.100000
vn 0.000000 0.000000 -0.100000
vn 0.000000 0.000000 -0.100000
vn 0.000000 0.000000 -0.100000
vn 0.000000 0.000000 -0.100000
vn 0.000000 0.000000 -0.100000
vn 0.000000 0.000000 -0.100000
vn 0.000000 0.000000 -0.100000
vn 0.000000 0.000000 -0.100000
vn 0.000000 0.000000 -0.100000
vn 0.000000 0.000000 -0.100000
vn 0.000000 0.000000 -0.100000
vn 0.000000 0.000000 -0.100000
vn 0.000000 0.000000 -0.100000
vn 0.000000 0.000000 -0.100000
vn 0.000000 0.000000 -0.100000
vn 0.000000 0.000000 -0.100000
vn 0.000000 0.000000 -0.100000
vn 0.000000 0.000000 -0.100000
vn 0.000000 0.000000 -0.100000
vn 0.000000 0.000000 -0.100000
vn 0.000000 0.000000 -0.100000
usemtl 235,235,235
f 42/2/2 41/46/46 46/1/1
f 46/1/1 41/46/46 45/24/24
f 46/1/1 45/24/24 44/23/23
f 44/23/23 45/24/24 43/25/25
f 44/23/23 43/25/25 39/26/26
f 42/2/2 38/3/3 41/46/46
f 41/46/46 38/3/3 37/45/45
f 37/45/45 38/3/3 34/4/4
f 37/45/45 34/4/4 33/44/44
f 33/44/44 34/4/4 30/5/5
f 33/44/44 30/5/5 29/43/43
f 29/43/43 30/5/5 26/6/6
f 29/43/43 26/6/6 25/42/42
f 25/42/42 26/6/6 22/7/7
f 25/42/42 22/7/7 21/41/41
f 21/41/41 22/7/7 18/8/8
f 21/41/41 18/8/8 17/40/40
f 17/40/40 18/8/8 14/9/9
f 17/40/40 14/9/9 13/39/39
f 13/39/39 14/9/9 10/10/10
f 13/39/39 10/10/10 9/38/38
f 9/38/38 10/10/10 6/11/11
f 9/38/38 6/11/11 5/37/37
f 5/37/37 6/11/11 2/12/12
f 5/37/37 2/12/12 1/36/36
f 1/36/36 2/12/12 4/47/47
f 1/36/36 4/48/48 3/35/35
f 3/49/49 4/13/13 8/14/14
f 3/50/50 8/14/14 7/34/34
f 7/34/34 8/14/14 12/15/15
f 7/34/34 12/15/15 11/33/33
f 11/33/33 12/15/15 16/16/16
f 11/33/33 16/16/16 15/32/32
f 15/32/32 16/16/16 20/17/17
f 15/32/32 20/17/17 19/31/31
f 19/31/31 20/17/17 24/18/18
f 19/31/31 24/18/18 23/30/30
f 23/30/30 24/18/18 28/19/19
f 23/30/30 28/19/19 27/29/29
f 27/29/29 28/19/19 32/20/20
f 27/29/29 32/20/20 31/28/28
f 31/28/28 32/20/20 36/21/21
f 31/28/28 36/21/21 35/27/27
f 35/27/27 36/21/21 40/22/22
f 35/27/27 40/22/22 39/26/26
f 39/26/26 40/22/22 44/23/23
f 46/51/51 44/52/52 42/73/73
f 42/73/73 44/52/52 40/53/53
f 42/73/73 40/53/53 38/72/72
f 38/72/72 40/53/53 36/54/54
f 38/72/72 36/54/54 34/71/71
f 34/71/71 36/54/54 32/55/55
f 34/71/71 32/55/55 30/70/70
f 30/70/70 32/55/55 28/56/56
f 30/70/70 28/56/56 26/69/69
f 26/69/69 28/56/56 24/57/57
f 26/69/69 24/57/57 20/58/58
f 20/58/58 16/59/59 26/69/69
f 26/69/69 16/59/59 12/60/60
f 26/69/69 12/60/60 8/61/61
f 8/61/61 4/62/62 26/69/69
f 26/69/69 4/62/62 2/63/63
f 26/69/69 2/63/63 6/64/64
f 6/64/64 10/65/65 26/69/69
f 26/69/69 10/65/65 14/66/66
f 26/69/69 14/66/66 18/67/67
f 18/67/67 22/68/68 26/69/69
f 45/74/74 41/75/75 43/96/96
f 43/96/96 41/75/75 39/95/95
f 39/95/95 41/75/75 37/76/76
f 39/95/95 37/76/76 35/94/94
f 35/94/94 37/76/76 33/77/77
f 35/94/94 33/77/77 31/93/93
f 31/93/93 33/77/77 29/78/78
f 31/93/93 29/78/78 27/92/92
f 27/92/92 29/78/78 25/79/79
f 27/92/92 25/79/79 23/91/91
f 23/91/91 25/79/79 19/90/90
f 19/90/90 25/79/79 15/89/89
f 15/89/89 25/79/79 11/88/88
f 11/88/88 25/79/79 7/87/87
f 7/87/87 25/79/79 3/86/86
f 3/86/86 25/79/79 1/85/85
f 1/85/85 25/79/79 5/84/84
f 5/84/84 25/79/79 9/83/83
f 9/83/83 25/79/79 13/82/82
f 13/82/82 25/79/79 17/81/81
f 17/81/81 25/79/79 21/80/80
# 46 vertices
# 96 texture params
# 96 normals
# 88 facets

# 1 groups
